<svg xmlns="http://www.w3.org/2000/svg" id="Layer_1" version="1.1" viewBox="836 313.99 872.6 425.45">
  <!-- Generator: Adobe Illustrator 30.1.0, SVG Export Plug-In . SVG Version: 2.1.1 Build 136)  -->
  <defs>
    <style>
      .st0 {
        fill: #231f20;
      }

      .st1 {
        fill: #ed1c24;
      }

      .st2 {
        fill: #a7a9ac;
      }
    </style>
  </defs>
  <path class="st1" d="M982,314h139v309c-3.08-1.54-3.75-4.53-5.06-7.57-.3-.69-.61-1.38-.92-2.09-.66-1.51-1.32-3.01-1.98-4.52-1.42-3.27-2.86-6.52-4.29-9.78-.76-1.72-1.52-3.44-2.27-5.17-3.71-8.44-7.49-16.85-11.29-25.26-1.89-4.2-3.79-8.4-5.68-12.6-.38-.83-.75-1.67-1.14-2.52-3.99-8.87-7.96-17.74-11.93-26.62-.35-.78-.7-1.56-1.06-2.36-1.76-3.93-3.51-7.86-5.27-11.79-3.18-7.12-6.36-14.23-9.55-21.34-1.77-3.95-3.53-7.89-5.3-11.84-.35-.78-.7-1.56-1.06-2.37-2.17-4.84-4.33-9.68-6.5-14.52-6.73-15.05-13.46-30.1-20.21-45.14-4.92-10.98-9.84-21.96-14.75-32.94-.35-.79-.71-1.58-1.07-2.4-3.73-8.34-7.46-16.68-11.19-25.02-1.54-3.45-3.08-6.9-4.63-10.34-.73-1.63-1.46-3.27-2.19-4.9-.69-1.54-1.38-3.09-2.07-4.63-.65-1.45-1.3-2.9-1.95-4.35-2.23-4.99-4.51-9.96-6.83-14.92q-.82-1.99-.82-3.99Z"/>
  <path class="st1" d="M841,314c2.74,3.65,4.54,7.11,6.34,11.25.32.71.63,1.43.96,2.16,1.03,2.34,2.06,4.68,3.08,7.03.72,1.64,1.45,3.28,2.17,4.93,1.46,3.32,2.93,6.64,4.39,9.96,2.8,6.36,5.65,12.71,8.5,19.05,1.06,2.35,2.11,4.71,3.17,7.06q.4.9.81,1.81c3.62,8.06,7.22,16.13,10.83,24.19.72,1.62,1.45,3.24,2.17,4.85,1.46,3.27,2.93,6.54,4.39,9.81,2.15,4.81,4.3,9.62,6.46,14.43.35.78.7,1.56,1.06,2.37,1.06,2.37,2.12,4.73,3.17,7.1,3.93,8.79,7.86,17.57,11.79,26.36,6.73,15.05,13.46,30.1,20.21,45.14,6.73,15.01,13.45,30.03,20.17,45.05,2.64,5.9,5.27,11.79,7.91,17.68,1.13,2.53,2.26,5.05,3.39,7.58.71,1.59,1.42,3.17,2.13,4.76.33.75.67,1.49,1.01,2.26.33.74.66,1.47,1,2.23.65,1.45,1.3,2.9,1.94,4.35,1.72,3.87,3.46,7.73,5.21,11.58.74,1.64,1.48,3.28,2.22,4.92q.53,1.15,1.06,2.32,2.44,5.42,2.44,8.76h-138v-309Z"/>
  <path class="st0" d="M1440,489h39c.71,5.76,1.42,11.53,2.15,17.46.45,3.64.9,7.28,1.35,10.92.72,5.79,1.43,11.57,2.15,17.36.57,4.66,1.15,9.32,1.73,13.99.22,1.78.44,3.57.66,5.35.3,2.49.61,4.98.93,7.46.09.74.18,1.49.27,2.26q.18,3.39,1.76,6.2c5.28-26.73,10.56-53.46,16-81h37c1.53,4.59,2.69,8.94,3.6,13.66.15.74.29,1.48.44,2.25.48,2.43.95,4.87,1.43,7.3.33,1.7.67,3.39,1,5.09.87,4.45,1.74,8.9,2.61,13.35.89,4.55,1.78,9.09,2.67,13.63,1.75,8.91,3.49,17.81,5.23,26.72,2.01-2.01,1.82-5.79,2.22-8.55.12-.79.23-1.58.36-2.39.39-2.62.77-5.25,1.15-7.87.27-1.81.53-3.63.8-5.44.71-4.79,1.41-9.57,2.11-14.36.84-5.74,1.69-11.47,2.53-17.21,1.28-8.72,2.56-17.45,3.84-26.17h37q-1.13,11.25-2.1,15.87c-.22,1.05-.44,2.09-.66,3.17q-.36,1.67-.72,3.37c-.25,1.2-.5,2.4-.76,3.63-.69,3.26-1.38,6.52-2.07,9.77-.73,3.42-1.45,6.83-2.17,10.25-1.21,5.73-2.42,11.45-3.64,17.18-1.41,6.62-2.81,13.25-4.21,19.88-1.35,6.38-2.7,12.77-4.05,19.15-.58,2.71-1.15,5.43-1.72,8.14-.8,3.78-1.6,7.56-2.41,11.33q-.36,1.7-.72,3.43c-.22,1.02-.44,2.04-.66,3.1-.19.89-.38,1.79-.57,2.71q-.53,2.02-1.53,3.02c-1.35.09-2.71.12-4.06.11-.86,0-1.72,0-2.61,0-.94,0-1.87-.01-2.83-.02-.95,0-1.91,0-2.89,0-3.06,0-6.11-.02-9.17-.03-2.07,0-4.13,0-6.2-.01-5.08-.01-10.16-.03-15.24-.05-1.37-7.09-2.74-14.19-4.11-21.28-.46-2.41-.93-4.81-1.39-7.22q-4.45-23.04-6.32-33.38-.35-1.91-.7-3.87c-.41-2.82-.58-5.42-.47-8.26h-2c-.04.63-.09,1.27-.13,1.92-.61,7.75-1.88,15.29-3.34,22.92-.24,1.28-.48,2.57-.73,3.89-.5,2.7-1.01,5.39-1.52,8.09-.65,3.45-1.3,6.9-1.95,10.35-.62,3.31-1.24,6.62-1.86,9.93-.23,1.24-.46,2.47-.7,3.74-.22,1.15-.43,2.29-.66,3.47-.19,1.01-.38,2.01-.58,3.05-.45,2.23-.98,4.44-1.53,6.65h-43c-1.3-3.9-2.39-7.4-3.23-11.36-.22-1.04-.44-2.07-.67-3.14-.24-1.12-.47-2.24-.71-3.4-.25-1.19-.51-2.39-.77-3.61-.69-3.26-1.38-6.52-2.07-9.77-.58-2.72-1.15-5.45-1.73-8.17-1.36-6.42-2.72-12.85-4.08-19.28-1.4-6.62-2.8-13.25-4.21-19.87-1.21-5.69-2.42-11.39-3.62-17.08-.72-3.4-1.44-6.8-2.16-10.19-.81-3.79-1.6-7.57-2.4-11.36-.24-1.12-.48-2.25-.73-3.4-.22-1.03-.43-2.07-.65-3.13-.19-.89-.38-1.79-.57-2.71q-.4-2.52-.4-7.52Z"/>
  <path class="st0" d="M1650.19,488.47c1.02,0,2.05,0,3.1-.01,2.15,0,4.3,0,6.44.02,3.26.02,6.52,0,9.77-.03,2.1,0,4.2,0,6.3.02.96,0,1.92-.02,2.91-.02,8.05.11,16.05,1.95,22.72,6.68,6.65,7.46,7.11,15.9,6.81,25.5-.08,3.75-.17,7.51-.25,11.38h-37c-.33-4.29-.66-8.58-1-13q-.5-.99-1-2c-1.98-.03-3.96-.05-5.94-.06-1.1-.01-2.2-.02-3.34-.04q-2.64-.21-3.72,1.1c-.09,1.85-.11,3.71-.1,5.57,0,1.12,0,2.25,0,3.41,0,1.18.02,2.37.03,3.59,0,1.19,0,2.38.01,3.6.01,2.95.03,5.89.05,8.84q1.41.01,2.85.03c3.55.04,7.09.11,10.64.18,1.53.03,3.05.05,4.58.06q20.78.2,27.92,6.48c5.79,6.21,6.34,12.26,6.38,20.45,0,.99.02,1.98.03,3,.01,2.09.02,4.19.03,6.28.01,3.18.06,6.35.11,9.53,0,2.04.02,4.08.02,6.12.02.94.04,1.88.06,2.85-.05,6.94-1.81,12.19-5.62,18.02q-2.54,2.25-5.06,3.56c-.84.46-1.67.91-2.54,1.38-3.86,1.7-7.19,2.19-11.4,2.22-.99,0-1.98.02-3.01.03q-1.6,0-3.23.01c-1.1,0-2.21.01-3.35.02-2.34,0-4.68.02-7.02.02-3.56,0-7.12.04-10.68.07-2.28,0-4.55.01-6.83.02q-1.58.02-3.2.04c-7.93-.02-14.33-1.14-21.01-5.55-5.47-5.73-7.83-12.15-7.79-20.02,0-.88,0-1.77,0-2.68,0-1.11.02-2.22.03-3.37.02-3.55.04-7.1.06-10.75h38q.49,6.93,1,14c4.29.33,8.58.66,13,1v-25c-3.42-1.14-6.11-1.14-9.72-1.18-1.36-.02-2.71-.05-4.07-.07-2.12-.03-4.25-.06-6.37-.08q-18.27-.14-25.44-5.98c-6.04-6.54-6.86-14.35-6.83-22.78q0-1.42-.02-2.86c0-1.99,0-3.97,0-5.96,0-3.02-.02-6.03-.05-9.05,0-1.94,0-3.88,0-5.82-.01-.89-.02-1.78-.03-2.7.08-7.56,1.94-13.68,7.09-19.34,7.59-5.51,16.5-6.8,25.62-6.72Z"/>
  <path class="st0" d="M1182,489h39c3.38,16.51,6.4,33.07,9.37,49.65.64,3.55,1.27,7.1,1.91,10.64,1.24,6.9,2.48,13.8,3.71,20.71,1.57-4.38,2.59-8.66,3.4-13.24q.19-1.05.38-2.12c.41-2.29.81-4.58,1.22-6.87.29-1.6.57-3.2.86-4.8.75-4.2,1.5-8.39,2.24-12.59,1.19-6.73,2.4-13.45,3.6-20.18.42-2.35.84-4.7,1.25-7.04.26-1.44.51-2.87.77-4.31.22-1.25.45-2.51.67-3.8q.6-3.05,1.6-6.05h39c-1.22,6.73-2.46,13.29-4.12,19.9-.2.82-.4,1.63-.61,2.47-.66,2.67-1.33,5.34-1.99,8.01-.47,1.9-.94,3.8-1.41,5.7-1.24,5-2.48,10-3.73,15-1.97,7.9-3.93,15.8-5.89,23.7-.72,2.89-1.43,5.78-2.15,8.66-2.21,8.91-4.41,17.81-6.55,26.74-.19.79-.38,1.57-.57,2.38-.88,3.65-1.75,7.29-2.61,10.94-.3,1.25-.6,2.5-.91,3.78-.26,1.09-.52,2.17-.78,3.29q-.67,2.41-1.67,3.41c-1.35.09-2.71.12-4.06.11-.86,0-1.72,0-2.61,0-.94,0-1.87-.01-2.83-.02-.95,0-1.91,0-2.89,0-3.06,0-6.11-.02-9.17-.03-2.07,0-4.13,0-6.2-.01-5.08-.01-10.16-.03-15.24-.05-2.03-5.83-3.77-11.67-5.23-17.67-.2-.82-.4-1.63-.61-2.47-.66-2.68-1.32-5.36-1.98-8.05-.47-1.9-.94-3.81-1.41-5.71-1.24-5.02-2.47-10.04-3.7-15.05-1.23-4.98-2.46-9.97-3.68-14.95-2.36-9.57-4.71-19.15-7.06-28.73-.86-3.52-1.73-7.03-2.59-10.55-.97-3.95-1.94-7.9-2.9-11.84-.35-1.43-.7-2.85-1.05-4.28-.48-1.93-.95-3.87-1.42-5.8-.26-1.07-.53-2.15-.8-3.25q-.55-2.64-.55-5.64Z"/>
  <path class="st0" d="M1353,489h81v27h-44v26h38v27h-38v27h46v27h-83v-134Z"/>
  <path class="st0" d="M1275,317h81v27h-44v26h38v27h-38v27h46v27h-83v-134Z"/>
  <path class="st0" d="M1368,317h81v27h-44v31h38v25h-38v51h-37v-134Z"/>
  <path class="st0" d="M1453,317h88v27h-25v107h-38v-107h-25v-27Z"/>
  <path class="st0" d="M1189,317h37v107h42v27h-79v-134Z"/>
  <path class="st0" d="M1300,489h37v134h-37v-134Z"/>
  <path class="st2" d="M1614,686h10l15,30c.33-9.9.66-19.8,1-30h9v52h-10c-1.56-2.96-3.13-5.92-4.69-8.88-.44-.82-.87-1.64-1.32-2.49-.44-.83-.87-1.65-1.32-2.5-.39-.74-.79-1.49-1.19-2.25-2.2-4.27-4.34-8.58-6.49-12.88-.33,9.57-.66,19.14-1,29h-9v-52Z"/>
  <path class="st2" d="M1183.38,686.44c5.35,3.17,8.56,8.25,10.44,14.09,2.24,10.09,1.89,20.66-3.14,29.91-2.94,4.19-5.65,7.1-10.68,8.56-7.71.79-13.8.9-20-4-5.9-5.5-7.54-12.12-8.29-20.03-.27-9.24,1.36-17.65,7.29-24.97,6.66-6.01,16.01-7.12,24.38-3.56ZM1166,697c-4.72,6.35-4.56,13.35-4,21,1.09,4.53,3.23,8.2,7,11,3.6,1.15,5.24,1.35,8.69-.25.76-.58,1.53-1.15,2.31-1.75q.84-.62,1.69-1.25c4.02-5.36,3.8-12.37,3.31-18.75-1-5.52-2.53-8.54-7-12-4.92-1.68-7.72-.85-12,2Z"/>
  <path class="st2" d="M1696,685c3.96,1.43,7.04,4.29,9,8,.53,2.68.77,5.27,1,8-3.05.29-5.96.46-9,0q-1.62-2.44-3-5c-3.92-1-7.15-1.39-11,0q.46,2.95,2,6c2.53,1.35,4.63,2.26,7.31,3.12,5.6,1.9,10.47,3.7,13.98,8.73,1.98,5.98,1.67,13.04-.91,18.71-4.83,4.96-7.9,6.69-14.88,6.88-6.35-.22-10.23-1.11-14.75-5.75-2.89-4.44-4.06-8.4-3.75-13.69h9c.41,1.11.82,2.23,1.25,3.38,1,2.29,1.58,3.48,3.5,5.12,3.34.74,5.95.29,9.25-.5q2.26-2.82,2.11-6-.84-3.35-4.49-4.65c-1.43-.45-2.86-.87-4.3-1.29q-10.21-3.39-13.46-8.14c-2.29-5.17-2.31-9.35-.73-14.73,5.23-8.89,12.38-9.03,21.88-8.19Z"/>
  <path class="st2" d="M1437,685c3.96,1.43,7.04,4.29,9,8,.53,2.68.77,5.27,1,8-3.05.29-5.96.46-9,0q-1.62-2.44-3-5c-3.92-1-7.15-1.39-11,0q.46,2.95,2,6c2.53,1.35,4.63,2.26,7.31,3.12,5.6,1.9,10.47,3.7,13.98,8.73,1.98,5.98,1.67,13.04-.91,18.71-4.83,4.96-7.9,6.69-14.88,6.88-6.35-.22-10.23-1.11-14.75-5.75-2.89-4.44-4.06-8.4-3.75-13.69h9c.41,1.11.82,2.23,1.25,3.38,1,2.29,1.58,3.48,3.5,5.12,3.34.74,5.95.29,9.25-.5q2.26-2.82,2.11-6-.84-3.35-4.49-4.65c-1.43-.45-2.86-.87-4.3-1.29q-10.21-3.39-13.46-8.14c-2.29-5.17-2.31-9.35-.73-14.73,5.23-8.89,12.38-9.03,21.88-8.19Z"/>
  <path class="st2" d="M892,686h9v20h17v-20h9v52h-9v-23h-17v23h-9v-52Z"/>
  <path class="st2" d="M1558,686h33v9h-24v12h22v8h-22v14h24v9h-33v-52Z"/>
  <path class="st2" d="M1326,686h33v9h-24v12h22v8h-22v14h24v9h-33v-52Z"/>
  <path class="st2" d="M1097,686h33v9h-24v12h22v8h-22v14h24v9h-33v-52Z"/>
  <path class="st2" d="M952,686h33v9h-24v12h22v8h-22v14h24v9h-33v-52Z"/>
  <path class="st2" d="M1217,686q25,0,30,3c3.92,4.48,4.14,10.26,4,16-.99,4.94-2.98,8.86-7,12-3.62,1.21-6.93,1.11-10.69,1.06q-3.62-.03-7.31-.06v20h-9v-52ZM1226,695v14q6.14.32,12-1.12,2.23-1.8,3-4.81.24-3.05-1.25-5.38c-2.9-2.79-5.61-2.81-9.44-2.75-1.42.02-2.85.04-4.31.06Z"/>
  <path class="st2" d="M1041,686q25,0,30,3c3.92,4.48,4.14,10.26,4,16-.99,4.94-2.98,8.86-7,12-3.62,1.21-6.93,1.11-10.69,1.06q-3.62-.03-7.31-.06v20h-9v-52ZM1050,695v14q6.14.32,12-1.12,2.23-1.8,3-4.81.24-3.05-1.25-5.38c-2.9-2.79-5.61-2.81-9.44-2.75-1.42.02-2.85.04-4.31.06Z"/>
  <path class="st2" d="M1505,686h10v43h21v9h-31v-52Z"/>
  <path class="st2" d="M1273,686h10v43h21v9h-31v-52Z"/>
  <path class="st2" d="M836,686h35v9h-13v43h-9v-43h-13v-9Z"/>
  <path class="st2" d="M1382,686h9q.48,14.87-3.94,20.44-2.06,1.56-5.06,1.56-.69-2.31-1-5,1.38-1.56,3-3,.71-2.1,1-4h-3v-10Z"/>
</svg>